<?xml version="1.0" encoding="iso-8859-1"?>
<!-- Generator: Adobe Illustrator 18.0.0, SVG Export Plug-In . SVG Version: 6.00 Build 0)  -->
<!DOCTYPE svg PUBLIC "-//W3C//DTD SVG 1.1//EN" "http://www.w3.org/Graphics/SVG/1.1/DTD/svg11.dtd">
<svg version="1.1" id="Capa_1" xmlns="http://www.w3.org/2000/svg" xmlns:xlink="http://www.w3.org/1999/xlink" x="0px" y="0px"
	 viewBox="0 0 306.463 306.463" style="enable-background:new 0 0 306.463 306.463;" xml:space="preserve">
<path d="M298.859,205.537c-0.04-0.039-0.079-0.078-0.12-0.116c-12.448-12.386-28.969-19.207-46.537-19.207
	c-7.285,0-14.384,1.19-21.094,3.446c14.857-31.841,9.168-70.977-17.08-97.228c-16.238-16.236-37.827-25.179-60.789-25.179
	c-12.811,0-25.192,2.79-36.459,8.071c7.706-22.998,2.432-49.428-15.85-67.712C96.022,2.703,89.495,0,82.552,0
	C75.609,0,69.08,2.703,64.167,7.614C58.496,13.29,56,20.956,56.68,28.384c-0.794-0.072-1.597-0.108-2.405-0.108
	c-6.941,0-13.469,2.704-18.379,7.614c-5.676,5.674-8.173,13.341-7.492,20.77c-0.794-0.072-1.595-0.108-2.402-0.108
	c-6.944,0-13.473,2.704-18.383,7.615c-4.91,4.908-7.614,11.435-7.614,18.377c0,6.941,2.704,13.469,7.614,18.381
	c12.464,12.46,29.034,19.322,46.658,19.322c7.265,0,14.344-1.184,21.036-3.428c-5.266,11.253-8.049,23.615-8.049,36.408
	c0.001,22.963,8.944,44.551,25.183,60.788c16.239,16.241,37.831,25.186,60.795,25.186c12.812,0,25.193-2.79,36.459-8.072
	c-7.692,22.953-2.457,49.323,15.735,67.602c0.037,0.039,0.075,0.078,0.113,0.117c4.91,4.911,11.437,7.615,18.38,7.615
	c6.944,0,13.471-2.704,18.377-7.615c4.911-4.91,7.615-11.438,7.615-18.381c0-0.802-0.036-1.599-0.107-2.389
	c0.789,0.072,1.586,0.108,2.388,0.108c6.942,0,13.471-2.705,18.38-7.614c4.912-4.908,7.617-11.436,7.617-18.38
	c0-0.803-0.036-1.601-0.108-2.391c0.788,0.071,1.583,0.107,2.384,0.107c0,0,0.001,0,0.001,0c6.942,0,13.471-2.704,18.384-7.616
	C308.993,232.162,308.992,215.674,298.859,205.537z M16.103,92.439c-2.644-2.644-4.1-6.158-4.1-9.896
	c0-3.736,1.456-7.249,4.099-9.892c2.645-2.645,6.16-4.1,9.899-4.1c3.737,0,7.25,1.455,9.895,4.097
	c2.344,2.342,6.141,2.342,8.484-0.002c2.342-2.343,2.342-6.141,0.001-8.484c-5.456-5.457-5.457-14.333-0.001-19.787
	c2.644-2.644,6.158-4.1,9.895-4.1c3.736,0,7.25,1.456,9.895,4.1c2.343,2.344,6.142,2.343,8.485,0.001
	c2.343-2.343,2.344-6.142,0.002-8.485c-5.454-5.456-5.454-14.336-0.002-19.792C75.298,13.455,78.813,12,82.552,12
	c3.737,0,7.251,1.455,9.894,4.098c18.06,18.062,20.605,45.838,7.667,66.657l-2.009-25.769c-0.192-2.478-2.355-4.344-4.836-4.137
	c-2.478,0.193-4.33,2.358-4.137,4.836l2.121,27.199L78.645,72.277c-1.758-1.758-4.606-1.758-6.364,0
	c-1.757,1.757-1.757,4.606,0,6.363l12.601,12.601L57.69,89.119c-2.469-0.199-4.642,1.658-4.836,4.136
	c-0.193,2.479,1.659,4.644,4.136,4.837l25.804,2.014c-8.476,5.295-18.275,8.142-28.518,8.142
	C39.857,108.247,26.3,102.633,16.103,92.439z M100.931,205.53c-13.973-13.971-21.668-32.546-21.668-52.303
	c0-19.757,7.694-38.332,21.665-52.304c13.975-13.974,32.552-21.67,52.312-21.67c19.756,0,38.332,7.693,52.304,21.664
	c28.842,28.845,28.842,75.776,0,104.619c-13.971,13.971-32.546,21.664-52.302,21.664
	C133.482,227.201,114.905,219.505,100.931,205.53z M290.377,233.808c-2.647,2.645-6.163,4.102-9.901,4.102
	c-3.736,0-7.25-1.455-9.894-4.097c-2.344-2.344-6.144-2.342-8.485,0.003c-1.171,1.172-1.756,2.708-1.756,4.243
	c0,1.536,0.587,3.071,1.759,4.242c2.644,2.642,4.099,6.154,4.099,9.892s-1.456,7.25-4.101,9.894
	c-2.644,2.644-6.159,4.101-9.896,4.101c-3.737,0-7.252-1.457-9.896-4.101c-2.343-2.344-6.143-2.344-8.485,0
	c-1.171,1.171-1.757,2.707-1.757,4.242c0,1.535,0.586,3.071,1.757,4.242c2.645,2.645,4.101,6.159,4.101,9.896
	s-1.456,7.252-4.102,9.897c-2.642,2.644-6.154,4.099-9.891,4.099c-3.694,0-7.17-1.423-9.803-4.01
	c-0.031-0.032-0.063-0.064-0.094-0.096c-18.059-18.059-20.604-45.832-7.667-66.65l2.009,25.768c0.184,2.359,2.155,4.15,4.481,4.15
	c0.117,0,0.236-0.004,0.355-0.014c2.478-0.193,4.33-2.358,4.137-4.836l-2.121-27.199l12.602,12.602
	c0.879,0.879,2.03,1.318,3.182,1.318c1.152,0,2.303-0.439,3.182-1.318c1.757-1.757,1.757-4.606,0-6.363l-12.601-12.601l27.194,2.122
	c0.119,0.01,0.237,0.014,0.355,0.014c2.326,0,4.297-1.791,4.481-4.149c0.193-2.479-1.659-4.644-4.136-4.837l-25.792-2.013
	c8.474-5.292,18.27-8.137,28.509-8.137c14.418,0,27.973,5.614,38.168,15.809c0.031,0.031,0.062,0.061,0.094,0.092
	C295.827,219.579,295.798,228.386,290.377,233.808z"/>
<g>
</g>
<g>
</g>
<g>
</g>
<g>
</g>
<g>
</g>
<g>
</g>
<g>
</g>
<g>
</g>
<g>
</g>
<g>
</g>
<g>
</g>
<g>
</g>
<g>
</g>
<g>
</g>
<g>
</g>
</svg>
